<svg width="238" height="56" viewBox="0 0 238 56" fill="none" xmlns="http://www.w3.org/2000/svg">
<path d="M70.4769 39.672L64 17.2793H69.2279L72.9748 32.8383H73.1627L77.2964 17.2793H81.7727L85.8954 32.8711H86.0943L89.8412 17.2793H95.0691L88.5923 39.672H83.928L79.6175 25.0314H79.4406L75.1411 39.672H70.4769Z" fill="#0D0C21"/>
<path d="M103.389 40C101.672 40 100.187 39.6392 98.9348 38.9175C97.6895 38.1886 96.728 37.1754 96.0501 35.8779C95.3722 34.5731 95.0332 33.0606 95.0332 31.3403C95.0332 29.6055 95.3722 28.0893 96.0501 26.7918C96.728 25.487 97.6895 24.4738 98.9348 23.7522C100.187 23.0232 101.672 22.6588 103.389 22.6588C105.106 22.6588 106.587 23.0232 107.832 23.7522C109.085 24.4738 110.05 25.487 110.728 26.7918C111.406 28.0893 111.745 29.6055 111.745 31.3403C111.745 33.0606 111.406 34.5731 110.728 35.8779C110.05 37.1754 109.085 38.1886 107.832 38.9175C106.587 39.6392 105.106 40 103.389 40ZM103.411 36.3918C104.192 36.3918 104.844 36.1731 105.367 35.7358C105.891 35.2911 106.285 34.6861 106.55 33.9207C106.823 33.1554 106.959 32.2843 106.959 31.3075C106.959 30.3308 106.823 29.4597 106.55 28.6943C106.285 27.9289 105.891 27.3239 105.367 26.8793C104.844 26.4346 104.192 26.2123 103.411 26.2123C102.623 26.2123 101.96 26.4346 101.422 26.8793C100.891 27.3239 100.49 27.9289 100.217 28.6943C99.9517 29.4597 99.819 30.3308 99.819 31.3075C99.819 32.2843 99.9517 33.1554 100.217 33.9207C100.49 34.6861 100.891 35.2911 101.422 35.7358C101.96 36.1731 102.623 36.3918 103.411 36.3918Z" fill="#0D0C21"/>
<path d="M114.806 39.672V22.8774H119.371V25.8077H119.548C119.858 24.7654 120.377 23.9781 121.107 23.446C121.836 22.9066 122.676 22.6369 123.627 22.6369C123.862 22.6369 124.117 22.6515 124.389 22.6806C124.662 22.7098 124.901 22.7499 125.108 22.8009V26.9339C124.887 26.8683 124.581 26.81 124.19 26.759C123.8 26.708 123.442 26.6825 123.118 26.6825C122.425 26.6825 121.807 26.8319 121.261 27.1308C120.723 27.4223 120.296 27.8305 119.979 28.3554C119.67 28.8802 119.515 29.4852 119.515 30.1704V39.672H114.806Z" fill="#0D0C21"/>
<path d="M131.808 34.8392L131.819 29.2519H132.505L137.943 22.8774H143.347L136.041 31.3185H134.925L131.808 34.8392ZM127.542 39.672V17.2793H132.25V39.672H127.542ZM138.153 39.672L133.157 32.3572L136.296 29.0661L143.668 39.672H138.153Z" fill="#0D0C21"/>
<path d="M145.657 39.672V22.8774H150.366V39.672H145.657ZM148.023 20.7125C147.323 20.7125 146.722 20.4829 146.221 20.0237C145.727 19.5572 145.48 18.9995 145.48 18.3508C145.48 17.7093 145.727 17.159 146.221 16.6998C146.722 16.2333 147.323 16 148.023 16C148.723 16 149.319 16.2333 149.813 16.6998C150.314 17.159 150.565 17.7093 150.565 18.3508C150.565 18.9995 150.314 19.5572 149.813 20.0237C149.319 20.4829 148.723 20.7125 148.023 20.7125Z" fill="#0D0C21"/>
<path d="M158.846 29.9626V39.672H154.137V22.8774H158.625V25.8405H158.824C159.2 24.8638 159.83 24.0911 160.714 23.5226C161.598 22.9467 162.67 22.6588 163.93 22.6588C165.109 22.6588 166.137 22.9139 167.014 23.4241C167.891 23.9344 168.572 24.6633 169.059 25.6109C169.545 26.5513 169.788 27.6738 169.788 28.9786V39.672H165.08V29.8096C165.087 28.7818 164.822 27.98 164.284 27.4041C163.746 26.821 163.005 26.5294 162.062 26.5294C161.429 26.5294 160.869 26.6642 160.382 26.9339C159.903 27.2036 159.528 27.5973 159.255 28.1148C158.99 28.6251 158.853 29.241 158.846 29.9626Z" fill="#0D0C21"/>
<path d="M182.529 22.8774V26.3763H172.305V22.8774H182.529ZM174.626 18.8538H179.335V34.5112C179.335 34.9412 179.401 35.2765 179.534 35.5171C179.666 35.7503 179.851 35.9144 180.086 36.0091C180.33 36.1039 180.61 36.1513 180.926 36.1513C181.148 36.1513 181.369 36.133 181.59 36.0966C181.811 36.0528 181.98 36.02 182.098 35.9982L182.839 39.4642C182.603 39.5371 182.271 39.621 181.844 39.7157C181.416 39.8178 180.897 39.8797 180.285 39.9016C179.151 39.9453 178.156 39.7959 177.301 39.4533C176.454 39.1107 175.794 38.5786 175.323 37.8569C174.851 37.1353 174.619 36.2241 174.626 35.1235V18.8538Z" fill="#0D0C21"/>
<path d="M193.151 40C191.404 40 189.901 39.6501 188.641 38.9503C187.389 38.2433 186.423 37.2446 185.745 35.9544C185.068 34.6569 184.729 33.1226 184.729 31.3513C184.729 29.6237 185.068 28.1075 185.745 26.8027C186.423 25.498 187.378 24.4811 188.608 23.7522C189.846 23.0232 191.298 22.6588 192.963 22.6588C194.083 22.6588 195.125 22.8374 196.091 23.1945C197.063 23.5444 197.911 24.0729 198.633 24.78C199.362 25.487 199.93 26.3763 200.335 27.4478C200.74 28.5121 200.943 29.7585 200.943 31.1872V32.4665H186.608V29.58H196.511C196.511 28.9093 196.363 28.3153 196.069 27.7977C195.774 27.2802 195.365 26.8756 194.842 26.5841C194.326 26.2852 193.725 26.1358 193.04 26.1358C192.325 26.1358 191.692 26.2998 191.139 26.6278C190.594 26.9485 190.167 27.3822 189.857 27.9289C189.548 28.4683 189.389 29.0697 189.382 29.733V32.4774C189.382 33.3084 189.537 34.0264 189.846 34.6314C190.163 35.2364 190.609 35.703 191.183 36.031C191.758 36.359 192.44 36.523 193.228 36.523C193.751 36.523 194.23 36.4501 194.665 36.3043C195.1 36.1585 195.472 35.9399 195.781 35.6483C196.091 35.3567 196.327 34.9995 196.489 34.5768L200.843 34.861C200.622 35.8961 200.169 36.8 199.484 37.5727C198.806 38.338 197.929 38.9358 196.853 39.3658C195.785 39.7886 194.551 40 193.151 40Z" fill="#0D0C21"/>
<path d="M211.686 40C209.947 40 208.451 39.6355 207.199 38.9066C205.953 38.1704 204.996 37.1499 204.325 35.8451C203.662 34.5403 203.33 33.0387 203.33 31.3403C203.33 29.62 203.666 28.1112 204.336 26.8137C205.014 25.5089 205.976 24.492 207.221 23.7631C208.466 23.0269 209.947 22.6588 211.664 22.6588C213.145 22.6588 214.442 22.9248 215.555 23.4569C216.667 23.9891 217.548 24.7362 218.196 25.6984C218.845 26.6606 219.202 27.7904 219.268 29.0879H214.825C214.7 28.2497 214.368 27.5754 213.83 27.0651C213.3 26.5476 212.603 26.2888 211.741 26.2888C211.012 26.2888 210.375 26.4857 209.829 26.8793C209.291 27.2656 208.871 27.8305 208.569 28.574C208.267 29.3175 208.116 30.2178 208.116 31.2747C208.116 32.3462 208.263 33.2574 208.558 34.0082C208.86 34.759 209.284 35.3312 209.829 35.7248C210.375 36.1185 211.012 36.3153 211.741 36.3153C212.279 36.3153 212.762 36.2059 213.189 35.9872C213.624 35.7686 213.981 35.4515 214.261 35.036C214.549 34.6132 214.737 34.1066 214.825 33.5162H219.268C219.195 34.7991 218.841 35.9289 218.207 36.9057C217.581 37.8752 216.715 38.6333 215.61 39.18C214.505 39.7267 213.197 40 211.686 40Z" fill="#0D0C21"/>
<path d="M226.991 29.9626V39.672H222.283V17.2793H226.859V25.8405H227.058C227.441 24.8492 228.06 24.0729 228.915 23.5116C229.769 22.9431 230.841 22.6588 232.131 22.6588C233.31 22.6588 234.338 22.9139 235.215 23.4241C236.099 23.9271 236.784 24.6524 237.27 25.6C237.764 26.5403 238.007 27.6665 238 28.9786V39.672H233.291V29.8096C233.299 28.7745 233.033 27.969 232.496 27.3932C231.965 26.8173 231.221 26.5294 230.263 26.5294C229.622 26.5294 229.054 26.6642 228.561 26.9339C228.074 27.2036 227.691 27.5973 227.411 28.1148C227.139 28.6251 226.999 29.241 226.991 29.9626Z" fill="#0D0C21"/>
<path d="M33.1999 5.59574C33.1999 8.68576 30.7306 11.1915 27.6854 11.1915C24.6403 11.1915 22.171 8.68576 22.171 5.59574C22.171 2.50572 24.6459 0 27.691 0C30.7361 0 33.2054 2.50572 33.2054 5.59574H33.1999Z" fill="url(#paint0_linear_551_33)"/>
<path d="M4.72529 33.5688C5.43951 33.67 6.13158 33.6306 6.77936 33.479C7.4216 33.3273 8.09153 33.5464 8.5566 34.0239L10.6494 36.1476C11.109 36.6139 11.3304 37.2937 11.1754 37.9342C11.0259 38.5859 10.9816 39.277 11.0813 39.9961C11.4079 42.4512 13.3623 44.4289 15.7818 44.7659C16.4905 44.8615 17.1715 44.8221 17.8137 44.6704C18.4504 44.5187 19.1148 44.7379 19.5744 45.2042L21.5675 47.2267C22.0381 47.7043 22.2541 48.4009 22.0935 49.0526C21.9551 49.6088 21.8997 50.1931 21.9385 50.7999C22.1323 53.6203 24.4576 55.9013 27.2425 55.9968C30.3762 56.1035 32.9507 53.5585 32.9507 50.4066C32.9507 49.9797 32.9009 49.5639 32.8123 49.1594C32.6628 48.5077 32.84 47.8279 33.3051 47.3559L35.4311 45.1985C35.8906 44.7322 36.5606 44.5075 37.1917 44.6648C37.834 44.8165 38.515 44.8615 39.2236 44.7603C41.6431 44.4289 43.5975 42.4456 43.9242 39.9905C44.0183 39.2713 43.9796 38.5803 43.8301 37.9286C43.6806 37.2825 43.8965 36.6083 44.356 36.142L46.4489 34.0183C46.9139 33.5464 47.5839 33.3216 48.2261 33.4733C48.8739 33.6306 49.566 33.67 50.2802 33.5632C52.7163 33.2149 54.6651 31.198 54.9586 28.7203C55.3904 25.0853 52.3841 22.0346 48.8019 22.4729C46.3769 22.7706 44.4003 24.7202 44.0405 27.1753C43.9353 27.8888 43.963 28.5799 44.1069 29.226C44.2453 29.8721 44.0239 30.5406 43.5643 31.0126L41.3718 33.2374C40.9123 33.7037 40.2535 33.8835 39.6167 33.743C39.1129 33.6363 38.5869 33.5969 38.0388 33.6363C35.3647 33.8441 33.1722 36.0633 32.9673 38.7825C32.9286 39.3331 32.9673 39.8725 33.0725 40.3837C33.2054 41.0298 33.0338 41.6984 32.5742 42.1647L30.343 44.4289C29.8835 44.8952 29.2191 45.075 28.5824 44.9345C28.2114 44.8558 27.8294 44.8109 27.4363 44.8109C27.0764 44.8109 26.7221 44.8446 26.3788 44.9176C25.7476 45.0469 25.0888 44.8727 24.6348 44.4064L22.4257 42.1647C21.9662 41.6984 21.789 41.0298 21.9274 40.3837C22.0326 39.8725 22.0714 39.3387 22.0326 38.7825C21.8278 36.0689 19.6408 33.8441 16.9611 33.6363C16.4185 33.5969 15.887 33.6363 15.3832 33.743C14.7465 33.8835 14.0876 33.7037 13.6281 33.2374L11.4356 31.0126C10.9761 30.5462 10.7546 29.8721 10.893 29.226C11.0314 28.5799 11.0647 27.8888 10.9595 27.1753C10.5996 24.7258 8.62304 22.7706 6.19802 22.4729C2.6214 22.0403 -0.390497 25.091 0.0413555 28.7259C0.334794 31.2036 2.28367 33.2149 4.71976 33.5688H4.72529Z" fill="url(#paint1_linear_551_33)"/>
<path d="M18.0518 22.2257C17.404 22.3774 16.712 22.4167 15.9977 22.3156H16.0033C13.5672 21.9672 11.6183 19.9503 11.3249 17.4727C10.8875 13.8377 13.8994 10.787 17.4815 11.2252C19.9066 11.523 21.8831 13.4781 22.243 15.9276C22.3482 16.6412 22.315 17.3322 22.1766 17.9783C22.0381 18.6244 22.2596 19.2986 22.7191 19.7649L24.8895 21.9672C25.3435 22.4335 26.0023 22.6077 26.6335 22.4785C26.9768 22.4054 27.3311 22.3717 27.691 22.3717C28.0841 22.3717 28.4661 22.4167 28.837 22.4953C29.4738 22.6358 30.1381 22.456 30.5977 21.9897L32.7902 19.7649C33.2497 19.293 33.4712 18.6244 33.3327 17.9783C33.1888 17.3322 33.1611 16.6412 33.2663 15.9276C33.6262 13.4725 35.6027 11.523 38.0278 11.2252C41.6099 10.787 44.6163 13.8377 44.1844 17.4727C43.891 19.9503 41.9421 21.9616 39.506 22.3099C38.7918 22.4167 38.0997 22.3774 37.452 22.22C36.8097 22.0684 36.1398 22.2931 35.6747 22.765L33.5542 24.9168C33.0891 25.3887 32.912 26.0685 33.0614 26.7202C33.15 27.1247 33.1999 27.5405 33.1999 27.9675C33.1999 31.1193 30.6254 33.6644 27.4917 33.5576C24.7068 33.4621 22.3814 31.1811 22.1876 28.3608C22.1489 27.754 22.2042 27.1697 22.3427 26.6135C22.5087 25.9562 22.2873 25.2651 21.8167 24.7876L19.8291 22.7706C19.364 22.2931 18.6941 22.074 18.0518 22.2257Z" fill="url(#paint2_linear_551_33)"/>
<defs>
<linearGradient id="paint0_linear_551_33" x1="27.7519" y1="58.0643" x2="27.7519" y2="5.88789" gradientUnits="userSpaceOnUse">
<stop offset="0.255208" stop-color="#00B3EB"/>
<stop offset="0.552083" stop-color="#3062FB"/>
<stop offset="1" stop-color="#BB10E0"/>
</linearGradient>
<linearGradient id="paint1_linear_551_33" x1="27.7519" y1="58.0643" x2="27.7519" y2="5.88789" gradientUnits="userSpaceOnUse">
<stop offset="0.255208" stop-color="#00B3EB"/>
<stop offset="0.552083" stop-color="#3062FB"/>
<stop offset="1" stop-color="#BB10E0"/>
</linearGradient>
<linearGradient id="paint2_linear_551_33" x1="27.7519" y1="58.0643" x2="27.7519" y2="5.88789" gradientUnits="userSpaceOnUse">
<stop offset="0.255208" stop-color="#00B3EB"/>
<stop offset="0.552083" stop-color="#3062FB"/>
<stop offset="1" stop-color="#BB10E0"/>
</linearGradient>
</defs>
</svg>
